# xmcd
#
# Track frame offsets:
#	150
#	15315
#	30370
#	46452
#	61477
#	79647
#	99048
#	115776
#	134054
#	148502
#	170881
#	187342
#	201250
#
# Disc length: 2928
#
# Revision: 1
# Processed by: cddbd v1.5.1PL0 Copyright (c) Steve Scherf et al.
# Submitted via: VisiTrax 2.9.5.181 - For more info visit www.synapsa.com
# Normalized: r0:DSETVAR1
#
DISCID=b20b6e0d
DTITLE=Various Artist - Greatest Hits Of The Country Vol. 7
DYEAR=2000
DGENRE=Country
TTITLE0=Andy Griggs - She's More
TTITLE1=Chely Wright - Single White Female
TTITLE2=Daryl Worley - I Miss My Friend
TTITLE3=Faith Hill - This Kiss
TTITLE4=Garth Brooks - The Cowboy Song
TTITLE5=Gary Allen - The One
TTITLE6=George Strait - Write This Down
TTITLE7=JoDee Messina - Bring On The Rain
TTITLE8=Kenny Chesney - How Forever Feels
TTITLE9=Le Ann Womack - I Hope You Dance
TTITLE10=Terri Clark - Now That I've Found You
TTITLE11=Tim McGraw - Something Like That
TTITLE12=Travis Tritt - Best Of Intentions
EXTD=
EXTT0=
EXTT1=
EXTT2=
EXTT3=
EXTT4=
EXTT5=
EXTT6=
EXTT7=
EXTT8=
EXTT9=
EXTT10=
EXTT11=
EXTT12=
PLAYORDER=
